<svg width="166" height="65" viewBox="0 0 166 65" fill="none" xmlns="http://www.w3.org/2000/svg">
<g filter="url(#filter0_di_3_413)">
<circle cx="134.5" cy="27.5002" r="12" fill="#5FD3BD"/>
</g>
<rect x="131.891" y="20.7178" width="5.21739" height="13.5652" rx="0.782609" fill="white"/>
<rect x="141.283" y="24.8916" width="5.21739" height="13.5652" rx="0.782609" transform="rotate(90 141.283 24.8916)" fill="white"/>
<path d="M7.732 55.628V50.732H12.084C13.172 50.732 14.1533 50.572 15.028 50.252C15.9027 49.9107 16.6493 49.4413 17.268 48.844C17.8867 48.2253 18.356 47.4893 18.676 46.636C18.996 45.7613 19.156 44.8013 19.156 43.756C19.156 42.668 18.996 41.6973 18.676 40.844C18.356 39.9907 17.8867 39.2653 17.268 38.668C16.6493 38.0707 15.9027 37.6227 15.028 37.324C14.1533 37.004 13.172 36.844 12.084 36.844H7.732V31.948H11.796C13.908 31.948 15.7533 32.2573 17.332 32.876C18.9107 33.4947 20.2333 34.3373 21.3 35.404C22.3667 36.4707 23.156 37.6973 23.668 39.084C24.2013 40.4493 24.468 41.8893 24.468 43.404V44.108C24.468 45.516 24.2013 46.9133 23.668 48.3C23.156 49.6653 22.3667 50.9027 21.3 52.012C20.2333 53.1 18.9107 53.9747 17.332 54.636C15.7533 55.2973 13.908 55.628 11.796 55.628H7.732ZM3.124 55.628V31.948H8.372V55.628H3.124ZM36.38 56.108C34.844 56.108 33.4787 55.8733 32.284 55.404C31.0893 54.9133 30.076 54.252 29.244 53.42C28.4333 52.588 27.8147 51.6387 27.388 50.572C26.9613 49.484 26.748 48.3427 26.748 47.148V46.412C26.748 45.196 26.9613 44.044 27.388 42.956C27.836 41.8467 28.476 40.876 29.308 40.044C30.1613 39.212 31.1853 38.5613 32.38 38.092C33.5747 37.6013 34.908 37.356 36.38 37.356C37.8947 37.356 39.2387 37.6013 40.412 38.092C41.6067 38.5613 42.62 39.212 43.452 40.044C44.284 40.876 44.924 41.8467 45.372 42.956C45.82 44.044 46.044 45.196 46.044 46.412V47.148C46.044 48.3427 45.8307 49.484 45.404 50.572C44.9773 51.6387 44.348 52.588 43.516 53.42C42.7053 54.252 41.7027 54.9133 40.508 55.404C39.3133 55.8733 37.9373 56.108 36.38 56.108ZM36.38 51.788C37.3827 51.788 38.2147 51.5747 38.876 51.148C39.5373 50.7213 40.0387 50.124 40.38 49.356C40.7427 48.588 40.924 47.7347 40.924 46.796C40.924 45.7933 40.7427 44.9187 40.38 44.172C40.0173 43.404 39.4947 42.796 38.812 42.348C38.1507 41.9 37.34 41.676 36.38 41.676C35.4413 41.676 34.6307 41.9 33.948 42.348C33.2653 42.796 32.7427 43.404 32.38 44.172C32.0387 44.9187 31.868 45.7933 31.868 46.796C31.868 47.7347 32.0387 48.588 32.38 49.356C32.7213 50.124 33.2333 50.7213 33.916 51.148C34.5987 51.5747 35.42 51.788 36.38 51.788ZM57.4893 56.108C55.9746 56.108 54.6519 55.8627 53.5213 55.372C52.4119 54.86 51.4839 54.1773 50.7373 53.324C49.9906 52.4707 49.4359 51.5107 49.0733 50.444C48.7106 49.356 48.5293 48.236 48.5293 47.084V46.476C48.5293 45.2813 48.7213 44.14 49.1053 43.052C49.4893 41.9427 50.0546 40.9613 50.8013 40.108C51.5479 39.2547 52.4759 38.5827 53.5853 38.092C54.7159 37.6013 56.0066 37.356 57.4573 37.356C59.0359 37.356 60.4333 37.6653 61.6493 38.284C62.8653 38.8813 63.8359 39.724 64.5613 40.812C65.2866 41.9 65.6919 43.148 65.7773 44.556H60.7533C60.6679 43.7667 60.3479 43.1053 59.7933 42.572C59.2599 42.0173 58.4813 41.74 57.4573 41.74C56.6039 41.74 55.8893 41.9533 55.3133 42.38C54.7586 42.8067 54.3426 43.3933 54.0653 44.14C53.7879 44.8867 53.6493 45.772 53.6493 46.796C53.6493 47.7347 53.7773 48.588 54.0333 49.356C54.2893 50.1027 54.6946 50.6893 55.2493 51.116C55.8253 51.5213 56.5719 51.724 57.4893 51.724C58.1719 51.724 58.7479 51.6067 59.2173 51.372C59.7079 51.116 60.0919 50.7747 60.3693 50.348C60.6679 49.9 60.8493 49.388 60.9133 48.812H65.9053C65.8413 50.2627 65.4359 51.5427 64.6893 52.652C63.9426 53.74 62.9506 54.5933 61.7133 55.212C60.4759 55.8093 59.0679 56.108 57.4893 56.108ZM77.1478 55.724C75.3771 55.724 73.9478 55.5107 72.8598 55.084C71.7718 54.636 70.9718 53.9 70.4598 52.876C69.9691 51.8307 69.7238 50.4227 69.7238 48.652V33.228H74.4918V48.844C74.4918 49.676 74.7051 50.316 75.1318 50.764C75.5798 51.1907 76.2091 51.404 77.0198 51.404H79.6118V55.724H77.1478ZM67.0678 41.708V37.964H79.6118V41.708H67.0678ZM91.5363 56.108C90.0003 56.108 88.6349 55.8733 87.4403 55.404C86.2456 54.9133 85.2323 54.252 84.4003 53.42C83.5896 52.588 82.9709 51.6387 82.5443 50.572C82.1176 49.484 81.9043 48.3427 81.9043 47.148V46.412C81.9043 45.196 82.1176 44.044 82.5443 42.956C82.9923 41.8467 83.6323 40.876 84.4643 40.044C85.3176 39.212 86.3416 38.5613 87.5363 38.092C88.7309 37.6013 90.0643 37.356 91.5363 37.356C93.0509 37.356 94.3949 37.6013 95.5683 38.092C96.7629 38.5613 97.7763 39.212 98.6083 40.044C99.4403 40.876 100.08 41.8467 100.528 42.956C100.976 44.044 101.2 45.196 101.2 46.412V47.148C101.2 48.3427 100.987 49.484 100.56 50.572C100.134 51.6387 99.5043 52.588 98.6723 53.42C97.8616 54.252 96.8589 54.9133 95.6643 55.404C94.4696 55.8733 93.0936 56.108 91.5363 56.108ZM91.5363 51.788C92.5389 51.788 93.3709 51.5747 94.0323 51.148C94.6936 50.7213 95.1949 50.124 95.5363 49.356C95.8989 48.588 96.0803 47.7347 96.0803 46.796C96.0803 45.7933 95.8989 44.9187 95.5363 44.172C95.1736 43.404 94.6509 42.796 93.9683 42.348C93.3069 41.9 92.4963 41.676 91.5363 41.676C90.5976 41.676 89.7869 41.9 89.1042 42.348C88.4216 42.796 87.8989 43.404 87.5363 44.172C87.1949 44.9187 87.0243 45.7933 87.0243 46.796C87.0243 47.7347 87.1949 48.588 87.5363 49.356C87.8776 50.124 88.3896 50.7213 89.0723 51.148C89.7549 51.5747 90.5763 51.788 91.5363 51.788ZM104.774 55.5V37.964H108.838V45.484H108.742C108.742 43.0093 109.264 41.1 110.31 39.756C111.376 38.412 112.912 37.74 114.918 37.74H115.59V42.156H114.31C112.902 42.156 111.814 42.54 111.046 43.308C110.278 44.0547 109.894 45.1427 109.894 46.572V55.5H104.774Z" fill="url(#paint0_linear_3_413)"/>
<defs>
<filter id="filter0_di_3_413" x="103.5" y="0.500244" width="62" height="62" filterUnits="userSpaceOnUse" color-interpolation-filters="sRGB">
<feFlood flood-opacity="0" result="BackgroundImageFix"/>
<feColorMatrix in="SourceAlpha" type="matrix" values="0 0 0 0 0 0 0 0 0 0 0 0 0 0 0 0 0 0 127 0" result="hardAlpha"/>
<feOffset dy="4"/>
<feGaussianBlur stdDeviation="9.5"/>
<feComposite in2="hardAlpha" operator="out"/>
<feColorMatrix type="matrix" values="0 0 0 0 0.0862745 0 0 0 0 0.470588 0 0 0 0 0.94902 0 0 0 0.2 0"/>
<feBlend mode="normal" in2="BackgroundImageFix" result="effect1_dropShadow_3_413"/>
<feBlend mode="normal" in="SourceGraphic" in2="effect1_dropShadow_3_413" result="shape"/>
<feColorMatrix in="SourceAlpha" type="matrix" values="0 0 0 0 0 0 0 0 0 0 0 0 0 0 0 0 0 0 127 0" result="hardAlpha"/>
<feOffset dy="4"/>
<feGaussianBlur stdDeviation="2"/>
<feComposite in2="hardAlpha" operator="arithmetic" k2="-1" k3="1"/>
<feColorMatrix type="matrix" values="0 0 0 0 0 0 0 0 0 0 0 0 0 0 0 0 0 0 0.12 0"/>
<feBlend mode="normal" in2="shape" result="effect2_innerShadow_3_413"/>
</filter>
<linearGradient id="paint0_linear_3_413" x1="-8.52994" y1="8.81372" x2="234.505" y2="84.6424" gradientUnits="userSpaceOnUse">
<stop stop-color="#3A8EF6"/>
<stop offset="1" stop-color="#6F3AFA"/>
</linearGradient>
</defs>
</svg>
